<svg width="1080" height="97" viewBox="0 0 1080 97" fill="none" xmlns="http://www.w3.org/2000/svg">
<path d="M8.35186 0.0209256C8.58825 -0.0011625 8.97416 0.00501634 9.21914 0.00262734L81.6595 0L87.0572 0.00599284C90.2558 0.0275578 92.8594 0.039962 95.3128 2.4968C98.0824 5.27066 97.9791 7.62176 98 11.3064L97.9594 86.3682C97.9599 87.1668 97.9716 87.9678 97.9425 88.7659C97.7754 93.3747 93.9198 96.9536 89.3492 96.9792L16.4492 96.9844L11.0338 96.9925C10.0716 96.9943 8.68941 97.0268 7.75956 96.9408C6.35181 96.8216 5.0032 96.3206 3.859 95.4905C1.8917 94.106 0.563576 91.9861 0.173897 89.6099C-0.00733167 88.4747 0.0457921 86.6937 0.0460649 85.4928L0.0467787 14.3368C0.0469528 10.5234 -0.501888 6.13157 2.15581 3.09144C4.02819 0.949614 5.67971 0.418546 8.35186 0.0209256Z" fill="#FFCF01"/>
<path d="M47.5088 15.2592C65.8749 14.4177 81.4377 28.6614 82.2503 47.0561C83.0628 65.4508 68.8164 81.0153 50.4482 81.8012C32.1189 82.5859 16.618 68.3553 15.8072 50C14.9963 31.6444 29.1819 16.0989 47.5088 15.2592Z" fill="#080808"/>
<path d="M47.1424 19.048C63.4109 18.004 77.4409 30.3751 78.4664 46.6693C79.492 62.9638 67.1249 77.0014 50.8539 78.0116C34.6067 79.0207 20.6149 66.6572 19.5907 50.3865C18.5665 34.116 30.8972 20.0905 47.1424 19.048Z" fill="#FFCF01"/>
<path d="M59.6425 46.4227C60.4481 46.4177 62.2131 47.0511 62.9328 47.4871C63.9746 48.0772 64.8098 49.0661 65.0542 50.2815C66.248 56.2122 59.7029 59.8381 55.6558 62.4451L50.3045 65.9234L43.1919 70.5346C42.3052 71.1112 39.2367 73.2392 38.4517 73.4293C37.7729 73.2055 36.4214 72.4835 35.7967 72.1296L34.1686 71.1385C36.5838 69.4743 39.2782 67.7817 41.7528 66.1861L51.7278 59.7079C52.9821 58.8947 53.9243 58.2826 55.4997 57.2747C56.6883 56.5138 62.0698 53.536 60.498 51.3595C59.9188 50.5577 56.6198 50.7377 55.3586 50.75C56.6639 49.3359 58.2641 47.8028 59.6425 46.4227Z" fill="#080808"/>
<path d="M59.4514 23.5912C60.4369 23.7988 62.9321 25.3327 63.8851 25.9018C62.4997 26.9778 59.9773 28.4738 58.4288 29.495L44.8902 38.288C42.8852 39.5915 40.8063 40.7859 38.9283 42.2684C38.1304 42.8222 36.6443 44.7621 37.5488 45.7038C38.3406 46.5284 41.2339 46.3298 42.3112 46.3409C41.9579 46.8237 40.7361 47.9876 40.2615 48.4591C39.5934 49.1345 38.7716 50.0102 38.0679 50.6197C37.7094 50.5321 37.3518 50.4406 36.9952 50.3452C33.4861 49.3778 32.1687 46.9028 33.177 43.4305C34.3318 39.4535 38.8645 36.9325 42.1231 34.7934L56.3945 25.5329C57.3266 24.9293 58.499 24.1145 59.4514 23.5912Z" fill="#080808"/>
<path d="M55.3491 46.3168C55.3183 46.5229 51.4973 50.2797 51.0605 50.6924C50.2057 50.7852 48.847 50.7446 47.9493 50.7437L42.4379 50.7424L42.4542 50.6242C43.0016 49.9863 46.2391 46.6601 46.854 46.3308C49.5645 46.228 52.5859 46.3811 55.3491 46.3168Z" fill="#080808"/>
<path d="M78.1322 10.7432C81.1195 10.4271 83.7987 12.5933 84.1202 15.5849C84.4412 18.5765 82.2832 21.2638 79.2971 21.5913C76.3022 21.9196 73.6104 19.7513 73.2882 16.7517C72.9661 13.7521 75.1362 11.0601 78.1322 10.7432Z" fill="#080808"/>
<path d="M77.8956 11.8366C80.2874 11.3917 82.5869 12.9695 83.0367 15.3636C83.4859 17.7577 81.916 20.0643 79.5259 20.5197C77.1294 20.9765 74.8171 19.3978 74.3667 16.9964C73.9158 14.5949 75.4968 12.283 77.8956 11.8366Z" fill="#FFCF01"/>
<path d="M76.5433 13.2133C77.718 13.1983 80.53 12.8464 81.0106 14.2955C81.4256 15.5467 80.9032 16.29 79.7407 16.7323C80.2201 17.3374 80.8789 18.3487 81.3391 19.0069L80.1209 19.0695C80.0733 19.0683 79.8963 19.0547 79.8597 19.0215C79.4093 18.6149 78.5996 16.7035 77.9368 16.7365C77.7511 16.9642 77.8103 18.6332 77.8086 19.0428C77.4377 19.0748 76.9246 19.0653 76.5421 19.0692L76.5433 13.2133Z" fill="#080808"/>
<path d="M77.8158 14.3571C78.6319 14.3432 80.4654 14.1662 79.6957 15.5644C79.0962 15.766 78.456 15.7095 77.8211 15.7011L77.8158 14.3571Z" fill="#FFCF01"/>
<path d="M140.169 21.9185C145.536 21.7467 151.402 21.9188 156.809 21.8582C159.311 21.8301 165.175 21.7436 167.417 21.9886C167.417 25.3595 167.403 28.8866 167.221 32.2425C164.842 32.3615 161.975 32.2758 159.556 32.2755L145.787 32.2744C143.474 32.2698 141.128 32.203 138.821 32.3067C137.225 32.3885 135.573 32.6428 134.548 34.0568C131.475 38.296 133.347 40.986 136.49 43.7432C138.449 43.9862 141.725 43.948 143.767 43.96L153.907 44.0619C155.648 44.0834 160.034 44.4174 161.588 45.0089C179.297 51.7514 175.016 76.4066 155.177 76.0796C145.78 76.0812 136.258 76.1857 126.875 76.0741C126.833 73.0484 126.749 69.436 126.939 66.4608C129.607 66.2456 133.278 66.3355 135.977 66.3407L149.678 66.3522C153.619 66.3607 158.259 67.1084 161.458 64.5071C162.079 62.6361 162.898 61.2896 162.598 59.1911C161.818 53.7309 157.331 54.153 153.296 54.1584L145.054 54.1767C143.075 54.1819 141.101 54.1681 139.113 54.1178C124.538 53.7475 117.971 36.8462 128.102 26.6085C131.866 22.8046 135.019 22.4293 140.169 21.9185Z" fill="black"/>
<path d="M323.799 76.0711L310.978 76.1013C301.39 76.1028 292.597 75.9268 285.557 68.5581C267.635 49.8009 280.539 22.0526 305.946 21.8614L316.994 21.8572C318.743 21.8583 322.098 21.7779 323.722 21.9976C323.95 24.331 323.979 29.6405 323.865 32.0221C320.049 32.5412 315.428 32.2298 311.492 32.2706C304.464 32.3434 297.956 31.2379 292.501 36.8128C290.446 38.9126 288.804 40.8888 287.971 43.7701C296.064 44.4072 305.637 43.6266 313.756 44.0632C313.975 45.3973 314.245 52.8952 313.772 53.8455L313.707 53.8869C311.734 53.4211 291.054 53.3558 290.016 53.9896L287.904 54.0976C289.504 58.754 292.256 62.3024 296.723 64.4344C301.491 66.7093 304.95 66.3667 310.01 66.3582L318.405 66.3434C319.957 66.3416 322.317 66.2909 323.794 66.5193C323.974 69.0824 323.982 73.4881 323.799 76.0711Z" fill="black"/>
<path d="M418.156 21.889C429.648 21.2714 430.744 29.2763 431.618 38.7195C431.891 41.6772 431.774 44.6518 431.778 47.6216C431.813 52.4588 431.778 57.2964 431.67 62.1327C431.597 66.8259 431.808 71.2958 431.568 76.094C428.671 76.1474 424.743 76.1804 421.897 76.0332C421.558 74.1037 421.72 68.4019 421.714 65.9957L421.712 46.1491C421.709 42.3054 421.837 37.556 421.451 33.8438C420.967 33.1711 420.737 32.8842 420.153 32.2995C418.608 32.0433 417.992 32.0997 416.491 32.2856C411.645 35.5386 407.527 42.9488 404.311 47.9453C399.622 54.8417 391.375 68.3854 386.191 75.6742C385.697 76.3676 376.118 76.2188 374.324 75.8401C376.014 74.0613 376.504 72.2538 377.825 70.3799C383.319 62.688 387.928 54.5803 393.293 46.798C398.472 39.2847 403.005 30.257 410.404 24.685C412.558 23.0634 415.602 22.4763 418.156 21.889Z" fill="black"/>
<path d="M224.757 75.8818C222.715 76.2452 215.918 76.1874 213.836 75.9727L213.617 75.764C213.727 74.4827 216.962 69.9328 217.796 68.6216L226.837 54.6167C231.361 47.6592 235.705 40.5776 240.481 33.7643C243.984 28.767 247.061 24.9243 252.957 22.7893C263.176 19.0896 269.082 25.465 270.012 35.221C270.282 38.0523 269.996 41.0193 270.07 43.8723C270.013 48.4847 270.217 53.5888 269.991 58.1498C269.297 58.8796 270.237 64.386 269.599 65.1535C269.564 65.1037 269.463 61.2134 269.433 60.687C269.306 63.4102 269.782 73.3209 268.67 74.7632C268.03 75.208 266.62 74.6093 266.412 75.2091C267.15 75.5023 267.982 75.0473 268.586 75.4173L268.582 75.6265C268.01 75.6299 267.46 75.6211 266.892 75.6943L266.997 75.8365C267.673 75.8854 268.173 75.9036 268.851 75.8924L261.336 75.8919C261.339 75.6569 261.324 75.5778 261.198 75.3835L261.003 75.0845C260.256 73.9606 261.248 56.5291 260.62 53.3383C260.462 53.761 260.569 53.624 260.166 53.8715L259.907 53.722C259.665 52.3029 259.767 49.1887 259.793 47.6822C259.851 44.8599 259.87 42.037 259.851 39.2143C259.835 37.7225 259.524 34.5852 259.626 33.4519C259.145 33.096 258.428 32.5299 257.946 32.2206C255.608 32.164 254.583 32.1899 252.807 34.0014C249.661 37.2089 246.746 41.864 244.265 45.6329L229.909 67.6721C228.436 69.9387 226.179 73.9571 224.757 75.8818Z" fill="black"/>
<path d="M175.791 22.0056C181.304 21.6208 189.49 21.8803 195.273 21.8826L213.084 21.915C215.671 21.9203 218.308 21.8274 220.877 21.8961C221.158 23.8259 221.119 29.9887 220.979 31.9924C217.438 32.6549 211.527 32.1125 207.754 32.2346C206.499 32.2752 204.954 32.0382 203.734 32.2705L203.24 32.2622C203.148 32.5169 202.997 73.4378 203.304 74.9925L203.09 75.8373C202.412 76.333 195.235 76.1045 193.94 76.0656C193.689 67.6581 193.924 57.9593 193.924 49.4647L193.909 39.6358C193.889 37.2507 193.783 34.5561 193.975 32.2094C191.12 32.3682 187.458 32.2414 184.539 32.2742C182.247 32.2999 177.944 32.381 175.856 32.0734C175.634 29.59 175.788 24.6506 175.791 22.0056Z" fill="black"/>
<path d="M331.672 21.9338C334.273 21.8823 338.176 21.8437 340.782 22.0006C341.024 24.7804 340.829 29.2911 340.823 32.2958L340.806 51.9567C340.806 53.9835 340.811 56.0311 340.81 58.0552C340.808 60.8163 340.837 62.7403 343.142 64.6608C344.021 65.404 345.069 65.9183 346.193 66.1578C349.93 66.9747 364.831 65.5992 366.621 66.6959C367.056 66.9626 367.107 67.4566 367.147 67.9217C367.375 70.5153 367.206 73.4691 367.082 76.0799L354.488 76.0856C347.221 76.0832 341.744 77.0321 335.878 71.3825C334.109 69.6781 332.083 66.4827 331.672 64.0387C331.792 58.2387 331.721 52.2435 331.721 46.4221L331.672 21.9338Z" fill="black"/>
<path d="M259.906 53.7236L260.165 53.8731C260.568 53.6256 260.461 53.7626 260.619 53.3398C261.247 56.5307 260.254 73.9622 261.002 75.086L261.197 75.3851C261.323 75.5793 261.338 75.6584 261.335 75.8935L268.85 75.8939L269.998 75.9824C268.961 76.2396 261.442 76.0912 259.906 76.0724C260.079 74.6472 259.958 70.3512 259.956 68.6816C259.973 63.6955 259.957 58.7095 259.906 53.7236Z" fill="black" fill-opacity="0.901961"/>
<path d="M331.056 63.5553C330.841 61.605 330.908 58.8493 330.906 56.8426L330.908 46.5043L330.916 30.2516C330.916 29.1246 330.718 22.5796 331.135 22.0547C331.438 22.3419 331.353 22.3526 331.415 22.8449L331.423 23.1285C331.238 26.0876 331.373 30.322 331.373 33.3771L331.365 52.5541C331.361 55.3601 331.568 61.0942 331.056 63.5553Z" fill="black" fill-opacity="0.854902"/>
<path d="M203.305 74.992C202.997 73.4373 203.148 32.5164 203.241 32.2617L203.735 32.27L203.732 32.6906L203.514 32.841C203.531 33.7836 203.328 40.0689 203.538 40.4168C203.47 44.9001 203.297 51.9489 203.502 56.3855C203.267 58.202 203.196 69.8855 203.492 71.5091L203.613 72.7619C203.879 72.3716 203.768 65.5694 203.737 64.597H203.896C203.932 65.9183 204.125 74.1786 203.749 74.8345C203.673 74.5392 203.592 74.2451 203.505 73.9525C203.238 74.5384 203.473 74.6509 203.305 74.992Z" fill="black" fill-opacity="0.121569"/>
<path d="M268.851 75.893C268.173 75.9042 267.673 75.886 266.997 75.8371L266.891 75.6948C267.459 75.6217 268.01 75.6305 268.582 75.6271L268.586 75.4179C267.981 75.0478 267.15 75.5029 266.412 75.2097C266.62 74.6098 268.03 75.2086 268.67 74.7637C269.782 73.3215 269.306 63.4108 269.433 60.6875C269.463 61.214 269.564 65.1043 269.598 65.154C270.237 64.3866 269.297 58.8801 269.991 58.1504C270.127 60.0856 270.276 74.9741 269.999 75.9814L268.851 75.893Z" fill="black" fill-opacity="0.960784"/>
<path d="M290.016 53.9892C291.054 53.3554 311.733 53.4207 313.707 53.8865C310.84 54.2891 307.745 54.1847 304.826 54.1869C299.889 54.2192 294.951 54.1534 290.016 53.9892Z" fill="black" fill-opacity="0.909804"/>
<path d="M203.731 32.6895C204.001 34.0272 203.838 39.7875 203.875 41.5129C204.036 49.0563 203.641 57.0879 203.895 64.5958H203.736C203.608 62.9134 203.695 59.9964 203.698 58.246L203.718 46.5241C203.72 45.3026 203.799 41.4128 203.537 40.4157C203.327 40.0677 203.53 33.7824 203.513 32.8398L203.731 32.6895Z" fill="black" fill-opacity="0.537255"/>
<path d="M331.416 22.8452L331.673 21.9336L331.721 46.4219C331.721 52.2433 331.793 58.2385 331.673 64.0385C331.401 63.1323 331.562 57.2016 331.567 55.9352L331.538 33.7574C331.535 31.3284 331.725 25.1902 331.424 23.1288L331.416 22.8452Z" fill="black" fill-opacity="0.501961"/>
<path d="M203.538 40.416C203.799 41.4131 203.721 45.3029 203.719 46.5245L203.699 58.2463C203.695 59.9967 203.609 62.9137 203.736 64.5962C203.768 65.5685 203.879 72.3708 203.613 72.761L203.491 71.5083C203.617 69.8387 203.545 67.1484 203.546 65.3994C203.547 62.4565 203.601 59.3089 203.502 56.3846C203.296 51.9481 203.469 44.8992 203.538 40.416Z" fill="black" fill-opacity="0.94902"/>
<path d="M203.492 71.5084C203.196 69.8848 203.267 58.2013 203.502 56.3848C203.602 59.3091 203.548 62.4567 203.546 65.3995C203.546 67.1486 203.618 69.8388 203.492 71.5084Z" fill="black" fill-opacity="0.498039"/>
<g clip-path="url(#clip0_927_1286)">
<path d="M849.607 21.783C850.885 21.7286 852.162 21.6858 853.439 21.6547C869.332 21.3021 881.869 32.2835 882.203 48.4374C882.351 55.6895 879.649 62.7107 874.676 67.9886C869.079 73.8141 862.678 76.214 854.752 76.3677C839.688 76.2517 828.952 65.6999 827.338 50.9159L827.308 51.8328C826.811 49.2681 826.937 47.7146 827.347 45.2227L827.29 47.3079C827.787 43.4362 828 41.0089 829.769 37.4268C833.974 28.9136 840.631 24.1465 849.607 21.783ZM857.476 66.3588C867.049 64.8508 873.606 55.8893 872.154 46.3024C870.699 36.7152 861.783 30.1026 852.192 31.5026C842.526 32.9139 835.853 41.9252 837.32 51.5887C838.784 61.2525 847.827 67.8786 857.476 66.3588Z" fill="black"/>
<path d="M749.556 21.9595C764.542 19.1211 778.971 29.0359 781.706 44.0507C784.442 59.0655 774.438 73.4372 759.413 76.0722C744.533 78.6821 730.337 68.786 727.628 53.9143C724.919 39.0426 734.712 24.771 749.556 21.9595ZM757.563 66.3698C767.079 64.7554 773.531 55.7933 772.052 46.251C770.573 36.7087 761.708 30.125 752.152 31.4712C745.85 32.359 740.514 36.5734 738.186 42.5008C735.859 48.4282 736.901 55.1504 740.914 60.0934C744.927 65.0363 751.289 67.4347 757.563 66.3698Z" fill="black"/>
<path d="M901.644 22.1C902.34 21.9342 909.461 21.9775 910.566 21.9783L933.306 22.017C933.559 25.3892 933.439 28.8715 933.33 32.2515C923.628 32.2373 913.91 32.184 904.208 32.2654C902.515 32.2796 899.903 32.9165 898.686 34.1773C898.041 34.813 897.954 36.217 897.981 37.1252C898.213 45.52 897.514 55.0526 898.141 63.3486C898.695 64.0464 899.737 65.0362 900.397 65.6957C905.693 65.769 911.006 65.6924 916.299 65.7228C919.29 65.74 922.832 65.5761 925.763 65.9194C924.703 51.5592 923.658 55.2742 909.844 55.109C909.714 52.2573 909.771 48.9176 909.747 46.0279V45.3596L910.181 44.9461C912.636 44.4629 922.498 44.7423 925.062 45.4503C928.752 46.4562 931.893 48.8859 933.794 52.206C936.457 56.9145 936.882 71.7594 935.65 76.22L912.392 76.2701C906.099 76.2812 898.963 77.247 893.686 73.4518C886.131 68.2068 887.953 57.8293 887.896 49.7823C887.869 45.8765 887.432 38.2549 888.098 34.482C888.487 32.1478 889.414 29.9365 890.806 28.0241C893.743 23.9985 897.044 22.8262 901.644 22.1Z" fill="black"/>
<path d="M667.704 76.0824C667.267 63.5278 667.733 50.7576 667.644 38.1574C667.613 33.8917 668.285 28.0703 671.465 24.7613C690.442 8.09766 701 64.7416 709.09 65.7607C709.248 65.7001 709.705 65.5382 709.816 65.4574C710.156 65.0388 710.68 64.269 710.712 63.7282C711.173 55.8395 710.623 47.7389 710.801 39.8293C710.929 34.1847 710.53 28.3335 710.975 22.7505C713.238 22.7047 717.717 22.8965 719.722 22.5992C720.213 25.4209 720.141 31.9577 719.977 35.0702C719.375 46.4829 724.816 85.9741 702.155 73.6862C695.315 69.9778 684.253 36.1963 679.163 32.409C678.526 32.5186 678.301 32.5665 677.908 33.1338C676.468 35.2122 677.577 70.388 677.203 75.9724C673.765 76.134 671.129 76.1515 667.704 76.0824Z" fill="black"/>
<path d="M1026.32 22.637C1030.23 22.4134 1036.92 22.697 1041.05 22.6844C1045.64 22.6705 1053.51 22.4298 1057.92 22.7994C1057.91 23.7603 1057.81 25.5478 1058.18 26.3478C1058.6 25.7231 1058.56 24.099 1058.59 23.2593C1059.01 25.4769 1058.5 29.715 1058.25 32.0731C1048.32 31.9813 1037.7 32.233 1027.67 32.2365C1023.14 35.8843 1023.08 39.8823 1027.47 43.6609C1034.55 44.6478 1042.56 43.55 1049.75 44.3126C1054.13 44.7768 1057.5 46.5762 1060.27 50.0576C1062.85 53.3585 1064.04 57.5385 1063.59 61.7047C1061.36 81.2366 1039.01 75.05 1025.87 76.1228C1023.88 76.2852 1019.73 76.1614 1017.72 75.9278C1017.84 72.7137 1017.76 69.5042 1017.89 66.2378C1021.4 65.4661 1025.98 65.7663 1029.63 65.7178C1036.48 65.6262 1043.65 65.9927 1050.47 65.6114C1051.97 64.4564 1052.69 63.6169 1053.79 62.1029C1054.02 57.8327 1053.67 56.6463 1050.12 54.2175C1044.59 54.071 1038.05 53.8899 1032.49 54.1144C1016.44 54.7628 1008.16 37.4782 1019.7 25.9328C1021.18 24.4542 1024.15 22.5966 1026.32 22.637Z" fill="black"/>
<path d="M1008.78 76.1043C1002.08 76.1281 992.746 76.6619 986.324 75.8038C955.219 71.6487 954.291 27.3434 985.917 22.2148C988.11 22.6405 1007.04 23.1244 1008.94 22.5959C1009.05 31.8018 1011.48 32.4494 1001.29 32.2558C988.697 32.0162 978.67 30.03 972.741 43.8471C978.013 44.0503 982.808 44.1024 988.092 44.0451C990.613 44.0177 996.132 43.9035 998.328 44.3381C999.222 45.5158 998.888 51.9498 998.891 53.7813C998.008 53.8566 997.174 53.8732 996.291 53.8804C988.456 53.9428 980.649 54.1517 972.811 54.1665C973.717 56.425 975.248 59.0085 976.91 60.773C978.992 62.9588 981.637 64.5229 984.556 65.2903C987.836 66.1234 1003.94 65.7081 1008.69 65.8377C1009.06 68.4474 1008.85 73.3141 1008.78 76.1043Z" fill="black"/>
<path d="M554.952 76.1336C544.282 74.9873 534.217 78.419 523.834 72.8029C500.451 60.1539 506.582 25.7795 533.456 22.2461C538.055 23.3982 553.319 21.767 554.965 23.2108L555.143 23.8763L555.641 23.3942L555.9 23.4644C555.958 26.2979 555.976 29.1321 555.953 31.9661C544.239 33.4895 530.566 28.4735 522.838 38.5603C521.616 40.1457 520.635 41.9024 519.926 43.7742C527.189 44.5473 535.799 43.5035 542.225 44.1049C543.568 44.9889 544.413 44.8331 545.029 45.6415C545.17 47.3201 545.261 50.8871 544.84 52.4909C543.789 53.3328 542.05 53.5176 540.668 53.8078C533.656 54.0258 526.955 54.0324 519.967 54.064C521.846 59.3964 524.98 62.4778 530.052 64.7403C530.503 64.9416 532.149 65.5719 532.366 65.8646C535.193 67.8865 549.898 66.0364 555.11 67.0938C555.132 68.4122 555.323 73.108 554.873 74.4815C554.65 75.1615 553.624 74.5442 553.397 75.4753C554.037 75.8807 554.22 75.9347 554.952 76.1336Z" fill="black"/>
<path d="M613.48 22.144C615.947 21.8306 620.405 22.0073 623.034 22.0406C623.244 28.9074 623.072 36.8331 623.08 43.7783C631.911 44.0511 641.077 43.7328 650.016 43.911C650.264 38.8842 649.638 27.0486 650.303 22.8272C650.924 28.0472 650.284 37.3416 650.621 43.3597C650.911 41.754 650.756 24.9392 650.744 22.137C653.715 23.1866 656.549 22.4373 659.835 23.1766C659.839 25.8364 659.694 28.2617 659.577 30.9022C658.933 45.4199 660.06 60.416 659.332 74.8826C658.521 74.9007 651.006 74.8684 650.805 74.9899C650.456 69.4896 650.77 59.8301 650.726 54.0242C643.694 53.6751 636.605 54.265 629.57 54.0148C627.391 53.9373 625.258 53.9328 623.078 54.032L623.032 75.981C619.948 76.1211 616.861 76.1398 613.776 76.0367C614.202 65.2571 613.719 53.3918 613.921 42.5253C613.99 38.8339 614.136 25.1535 613.48 22.144Z" fill="black"/>
<path d="M605.932 76.0268C601.923 76.1115 597.913 76.1468 593.903 76.132C585.871 76.1423 578.79 76.2746 571.811 71.6343C550.981 57.7835 557.929 25.7341 583.262 22.2383C588.004 23.4796 603.297 21.9522 606.193 23.0319C606.219 26.0551 606.181 29.0784 606.08 32.1C598.443 32.7515 588.951 31.44 581.377 32.6541C579.427 32.9667 576.241 35.1295 574.753 36.5127C571.48 39.5992 569.547 43.8474 569.37 48.3443C569.217 52.8685 570.846 57.2723 573.908 60.6054C577.689 64.6407 581.742 65.7849 587.075 65.7894C593.365 65.7946 599.743 65.5944 606.021 65.7946C606.217 68.8094 606.124 73.0609 605.932 76.0268Z" fill="black"/>
<path d="M461.043 23.5158C461.537 23.2222 462.372 22.735 462.944 22.7233C474.091 22.494 485.299 22.8027 496.453 22.7164C499.636 22.6918 502.749 22.7902 505.89 22.6411C506.521 24.2028 506.142 30.1609 506.043 32.0158C503.03 32.3168 489.448 31.8455 488.064 32.4401C486.735 35.7334 488.3 68.1329 487.547 74.8705C484.082 75.0986 481.746 75.527 478.488 74.3119C478.766 73.2362 478.656 64.3618 478.668 62.6208C478.74 52.5155 478.503 42.3254 478.744 32.222C472.856 32.2764 466.968 32.2532 461.081 32.1524C460.872 30.0676 460.925 25.5531 461.043 23.5158Z" fill="black"/>
<path d="M789.901 22.0961C792.712 21.8622 796.32 21.8575 799.122 22.0469C799.559 30.0776 798.007 57.2601 800.164 62.5575C800.483 63.3346 800.938 64.3609 801.679 64.8218C804.484 66.5724 816.774 65.7438 820.5 65.726C821.509 65.7212 823.401 65.4924 824.313 65.859C824.735 66.0287 825.16 66.4633 825.639 66.6665C825.997 69.9857 825.808 72.3316 825.064 75.5607L824.756 75.9303C822 76.3691 814.816 76.0156 811.55 76.14C805.255 76.38 798.884 75.9019 794.152 71.1657C792.172 69.1884 790.808 66.6779 790.227 63.9398C789.633 61.0959 789.937 53.4116 789.937 49.9667L789.901 22.0961Z" fill="black"/>
<path d="M944.848 72.1772C944.601 66.0762 944.17 26.1252 945.248 22.2178C946.836 21.7816 953.044 21.9505 955.002 21.9595C955.101 33.7249 955.116 45.4908 955.044 57.2564C955.041 61.674 954.821 69.9238 955.171 74.0692L954.387 73.7479C953.43 75.0373 948.239 75.9096 946.631 74.8948C945.369 74.0984 945.32 73.5016 944.848 72.1772Z" fill="black"/>
<path d="M650.744 22.1365C652.911 21.8084 657.867 21.9505 660.214 22.0637L660.189 76.0143C658.655 76.0583 651.767 76.4312 650.929 75.7192L650.806 74.9895C651.007 74.868 658.521 74.9003 659.332 74.8822C660.061 60.4156 658.933 45.4195 659.577 30.9018C659.694 28.2613 659.839 25.8359 659.835 23.1762C656.549 22.4369 653.715 23.1862 650.744 22.1365Z" fill="black" fill-opacity="0.968627"/>
<path d="M710.004 21.905C711.982 21.8828 718.004 21.7124 719.552 22.0911L719.721 22.5991C717.716 22.8964 713.237 22.7046 710.974 22.7504C710.529 28.3334 710.928 34.1846 710.8 39.8292C710.621 47.7387 711.172 55.8394 710.71 63.7281C710.679 64.2688 710.155 65.0387 709.814 65.4573C710.069 50.9895 709.633 36.2839 710.004 21.905Z" fill="black" fill-opacity="0.956863"/>
<path d="M488.065 32.4414C488.774 35.1506 488.695 71.6994 488.321 75.9762C485.711 76.1091 482.848 76.3828 480.243 76.0932C478.752 75.9274 478.815 75.5789 478.488 74.3133C481.747 75.5283 484.083 75.1 487.548 74.8718C488.301 68.1342 486.735 35.7347 488.065 32.4414Z" fill="black" fill-opacity="0.964706"/>
<path d="M461.042 23.5157C460.978 22.8734 460.961 22.7211 461.151 22.1037C463.401 21.0136 493.22 22.4898 497.899 21.8874C499.135 21.7282 505.012 21.597 505.889 22.641C502.749 22.7901 499.635 22.6917 496.452 22.7163C485.298 22.8026 474.09 22.4939 462.944 22.7232C462.371 22.7349 461.536 23.2221 461.042 23.5157Z" fill="black" fill-opacity="0.945098"/>
<path d="M532.365 65.8656C539.071 65.2124 548.566 66.12 555.631 65.723C555.981 67.7552 556.415 74.0569 555.616 75.8458L554.951 76.1346C554.22 75.9357 554.037 75.8817 553.397 75.4763C553.624 74.5452 554.649 75.1625 554.873 74.4825C555.323 73.109 555.132 68.4132 555.11 67.0948C549.898 66.0374 535.192 67.8875 532.365 65.8656Z" fill="black" fill-opacity="0.964706"/>
<path d="M1026.32 22.6366C1029.92 21.3182 1052.86 21.6669 1057.85 22.0193C1058.21 22.5138 1058.34 22.7047 1058.59 23.2589C1058.56 24.0986 1058.6 25.7227 1058.18 26.3474C1057.81 25.5474 1057.91 23.7599 1057.92 22.799C1053.51 22.4294 1045.64 22.6701 1041.05 22.684C1036.92 22.6966 1030.23 22.413 1026.32 22.6366Z" fill="black" fill-opacity="0.94902"/>
<path d="M533.457 22.2465C535.25 21.8078 553.599 21.6585 555.686 22.0011C556.017 22.5772 555.963 22.8068 555.901 23.4648L555.641 23.3946L555.144 23.8767L554.966 23.2111C553.32 21.7674 538.056 23.3986 533.457 22.2465Z" fill="black" fill-opacity="0.94902"/>
<path d="M583.264 22.2389C585.59 21.6912 602.422 21.6268 605.836 22.2321C605.947 22.2518 606.122 22.8361 606.194 23.0325C603.299 21.9529 588.005 23.4802 583.264 22.2389Z" fill="black" fill-opacity="0.945098"/>
<path d="M985.916 22.2148C987.711 21.8354 1007.63 21.6269 1008.83 22.1906L1008.94 22.5958C1007.04 23.1243 988.109 22.6404 985.916 22.2148Z" fill="black" fill-opacity="0.945098"/>
<path d="M944.847 72.1758C945.32 73.5002 945.369 74.097 946.631 74.8934C948.239 75.9082 953.429 75.0359 954.387 73.7465L955.171 74.0678L954.893 75.7747C954.02 76.3453 946.308 76.1895 944.986 75.8329C944.61 74.9118 944.796 73.2335 944.847 72.1758Z" fill="black" fill-opacity="0.968627"/>
<path d="M542.225 44.1055L545.941 44.1175C546.009 47.3403 546.02 50.564 545.975 53.7873C544.048 53.8654 542.606 53.9055 540.668 53.8084C542.051 53.5182 543.79 53.3334 544.841 52.4915C545.261 50.8877 545.171 47.3207 545.029 45.6421C544.413 44.8337 543.568 44.9895 542.225 44.1055Z" fill="black" fill-opacity="0.960784"/>
</g>
<defs>
<clipPath id="clip0_927_1286">
<rect width="617" height="79" fill="white" transform="translate(463 9)"/>
</clipPath>
</defs>
</svg>
