<svg width="448" height="447" viewBox="0 0 448 447" fill="none" xmlns="http://www.w3.org/2000/svg">
<path d="M49.3009 14.5861C50.3192 14.4911 51.9814 14.5177 53.0367 14.5074L291.328 14.5017L365.066 14.4961L388.316 14.5219C402.093 14.6146 413.308 14.668 423.876 25.2347C435.806 37.165 435.361 47.277 435.451 63.1242L435.253 294.852L435.263 365.472L435.276 385.962C435.278 389.397 435.328 392.842 435.203 396.274C434.483 416.097 417.876 431.489 398.188 431.599L158.466 431.609L84.1794 431.622L60.8532 431.657C56.7084 431.664 50.7549 431.804 46.7497 431.434C40.6859 430.922 34.8769 428.767 29.9484 425.197C21.4745 419.242 15.7537 410.124 14.0752 399.904C13.2946 395.022 13.5234 387.362 13.5246 382.197L13.531 355.177L13.5359 259.427L13.5346 120.015L13.5277 76.1582C13.5284 59.7567 11.1643 40.8677 22.6121 27.7922C30.6772 18.5803 37.7909 16.2962 49.3009 14.5861Z" fill="#FFCF01"/>
<path d="M217.965 80.1251C297.076 76.5059 364.111 137.768 367.611 216.883C371.111 295.997 309.746 362.94 230.627 366.32C151.675 369.695 84.9066 308.49 81.4141 229.544C77.9213 150.597 139.024 83.7369 217.965 80.1251Z" fill="#080808"/>
<path d="M216.387 96.4208C286.462 91.9305 346.895 145.138 351.312 215.219C355.73 285.301 302.46 345.676 232.374 350.021C162.391 354.361 102.123 301.186 97.7112 231.206C93.2994 161.228 146.413 100.905 216.387 96.4208Z" fill="#FFCF01"/>
<path d="M270.23 214.158C273.7 214.137 281.303 216.861 284.403 218.736C288.89 221.274 292.488 225.528 293.54 230.755C298.683 256.262 270.49 271.857 253.058 283.07L230.008 298.03L199.371 317.862C195.551 320.342 182.334 329.495 178.953 330.312C176.029 329.35 170.207 326.245 167.517 324.722L160.504 320.46C170.907 313.302 182.513 306.022 193.172 299.16L236.138 271.297C241.541 267.8 245.6 265.167 252.385 260.832C257.505 257.56 280.685 244.752 273.915 235.391C271.42 231.943 257.21 232.717 251.778 232.77C257.4 226.688 264.293 220.094 270.23 214.158Z" fill="#080808"/>
<path d="M269.407 115.961C273.652 116.854 284.4 123.451 288.505 125.899C282.537 130.526 271.672 136.961 265.002 141.353L206.686 179.171C198.05 184.777 189.095 189.914 181.006 196.291C177.569 198.673 171.168 207.016 175.064 211.066C178.475 214.613 190.937 213.759 195.577 213.806C194.056 215.883 188.793 220.889 186.748 222.917C183.871 225.821 180.331 229.588 177.3 232.209C175.755 231.833 174.215 231.439 172.679 231.029C157.564 226.868 151.89 216.223 156.233 201.289C161.207 184.184 180.731 173.341 194.767 164.141L231.081 140.633L256.239 124.312C260.254 121.716 265.305 118.212 269.407 115.961Z" fill="#080808"/>
<path d="M251.737 213.703C251.604 214.589 235.146 230.747 233.264 232.522C229.582 232.921 223.73 232.747 219.863 232.743L196.123 232.737L196.193 232.229C198.551 229.485 212.496 215.179 215.145 213.763C226.82 213.321 239.834 213.979 251.737 213.703Z" fill="#080808"/>
<path d="M349.873 60.702C362.74 59.3428 374.28 68.6595 375.665 81.5263C377.048 94.393 367.753 105.951 354.89 107.359C341.99 108.771 330.395 99.4458 329.008 86.5445C327.62 73.6433 336.968 62.0653 349.873 60.702Z" fill="#080808"/>
<path d="M348.853 65.405C359.156 63.4913 369.061 70.2773 370.998 80.5743C372.933 90.871 366.171 100.792 355.876 102.751C345.553 104.715 335.593 97.9253 333.653 87.5968C331.711 77.2683 338.521 67.3248 348.853 65.405Z" fill="#FFCF01"/>
<path d="M343.028 71.3261C348.088 71.2616 360.201 69.7481 362.271 75.9806C364.058 81.3619 361.808 84.5589 356.801 86.4611C358.866 89.0634 361.703 93.4131 363.686 96.2439L358.438 96.5134C358.233 96.5079 357.471 96.4496 357.313 96.3066C355.373 94.5581 351.886 86.3371 349.031 86.4791C348.231 87.4586 348.486 94.6366 348.478 96.3984C346.881 96.5361 344.671 96.4951 343.023 96.5121L343.028 71.3261Z" fill="#080808"/>
<path d="M348.51 76.2452C352.025 76.1857 359.922 75.4242 356.607 81.438C354.025 82.305 351.267 82.062 348.532 82.026L348.51 76.2452Z" fill="#FFCF01"/>
</svg>
